# xmcd
#
# Track frame offsets:
# 150
# 17387
# 32857
# 48665
# 69750
# 82144
# 97042
# 115834
# 128347
# 142443
# 158437
# 172981
# 193244
# 193605
# 194013
# 194379
# 194774
# 195168
# 195617
# 195949
# 196320
# 196676
# 197107
# 197470
# 197828
# 198207
# 198569
# 198940
# 199320
# 199704
# 200076
# 200464
# 200818
# 201201
# 201582
# 201951
# 202368
# 202706
# 203068
# 203464
# 203819
# 204187
# 204565
# 204955
# 205325
# 205688
# 206111
# 206475
# 206832
# 207203
# 207581
# 207938
# 208318
# 208703
# 209142
# 209453
# 209802
# 210182
# 210532
# 210936
# 211392
# 211710
# 212066
# 212429
# 212854
# 213190
# 213586
# 213953
# 214324
#
# Disc length: 2877 seconds
#
#
# Revision: 0
# Processed by: cddbd v1.5PL3 Copyright (c) Steve Scherf et al.
# Submitted via: FreeRIP 2.53 
#
DISCID=8b0b3b45
DTITLE=The Backsliders - Hanoi
DYEAR=2002
DGENRE=Blues
TTITLE0=Hanoi
TTITLE1=Wretch Like Me
TTITLE2=The Church Of Never Find Out
TTITLE3=Thinkin' Man's Drinkin' Man
TTITLE4=Black Top Road
TTITLE5=Son Of The Father
TTITLE6=Clinging To My Culture
TTITLE7=Train Wreck
TTITLE8=Black Wind
TTITLE9=I Call Your Name
TTITLE10=You Got To Move
TTITLE11=Rest At Night
TTITLE12=Filler
TTITLE13=Filler
TTITLE14=Filler
TTITLE15=Filler
TTITLE16=Filler
TTITLE17=Filler
TTITLE18=Filler
TTITLE19=Filler
TTITLE20=Filler
TTITLE21=Filler
TTITLE22=Filler
TTITLE23=Filler
TTITLE24=Filler
TTITLE25=Filler
TTITLE26=Filler
TTITLE27=Filler
TTITLE28=Filler
TTITLE29=Filler
TTITLE30=Filler
TTITLE31=Filler
TTITLE32=Filler
TTITLE33=Filler
TTITLE34=Filler
TTITLE35=Filler
TTITLE36=Filler
TTITLE37=Filler
TTITLE38=Filler
TTITLE39=Filler
TTITLE40=Filler
TTITLE41=Filler
TTITLE42=Filler
TTITLE43=Filler
TTITLE44=Filler
TTITLE45=Filler
TTITLE46=Filler
TTITLE47=Filler
TTITLE48=Filler
TTITLE49=Filler
TTITLE50=Filler
TTITLE51=Filler
TTITLE52=Filler
TTITLE53=Filler
TTITLE54=Filler
TTITLE55=Filler
TTITLE56=Filler
TTITLE57=Filler
TTITLE58=Filler
TTITLE59=Filler
TTITLE60=Filler
TTITLE61=Filler
TTITLE62=Filler
TTITLE63=Filler
TTITLE64=Filler
TTITLE65=Filler
TTITLE66=Filler
TTITLE67=Filler
TTITLE68=Bonus
EXTD=
EXTT0=
EXTT1=
EXTT2=
EXTT3=
EXTT4=
EXTT5=
EXTT6=
EXTT7=
EXTT8=
EXTT9=
EXTT10=
EXTT11=
EXTT12=
EXTT13=
EXTT14=
EXTT15=
EXTT16=
EXTT17=
EXTT18=
EXTT19=
EXTT20=
EXTT21=
EXTT22=
EXTT23=
EXTT24=
EXTT25=
EXTT26=
EXTT27=
EXTT28=
EXTT29=
EXTT30=
EXTT31=
EXTT32=
EXTT33=
EXTT34=
EXTT35=
EXTT36=
EXTT37=
EXTT38=
EXTT39=
EXTT40=
EXTT41=
EXTT42=
EXTT43=
EXTT44=
EXTT45=
EXTT46=
EXTT47=
EXTT48=
EXTT49=
EXTT50=
EXTT51=
EXTT52=
EXTT53=
EXTT54=
EXTT55=
EXTT56=
EXTT57=
EXTT58=
EXTT59=
EXTT60=
EXTT61=
EXTT62=
EXTT63=
EXTT64=
EXTT65=
EXTT66=
EXTT67=
EXTT68=
PLAYORDER=
